<svg width="24" height="24" viewBox="0 0 24 24" fill="none" xmlns="http://www.w3.org/2000/svg">
  <path d="M12 2C6.477 2 2 6.477 2 12C2 17.523 6.477 22 12 22C17.523 22 22 17.523 22 12C22 6.477 17.523 2 12 2Z" fill="#eff6ff"/>
  <path d="M8 13.5C8 12.1193 9.11929 11 10.5 11H13.5C14.8807 11 16 12.1193 16 13.5V15.5C16 16.8807 14.8807 18 13.5 18H10.5C9.11929 18 8 16.8807 8 15.5V13.5Z" fill="#3b82f6"/>
  <path d="M9.75 12.25H14.25" stroke="white" stroke-width="1.5" stroke-linecap="round"/>
  <path d="M12 11.25V15.75" stroke="white" stroke-width="1.5" stroke-linecap="round"/>
</svg>
